<svg xmlns="http://www.w3.org/2000/svg"> 

<symbol id="chocolate-icon" viewBox="0 0 24 24" fill="none" xmlns="http://www.w3.org/2000/svg">
    <g>
        <path id="Vector 14" d="M2.95799 15.0568L11.0406 1.9886L11.5206 1.48303L17.6974 5.6014L17.7397 8.08665L19.2472 10.5463L12.5874 21.1038L2.95799 15.0568Z" fill="#FCF1E0"/>
        <path id="Vector" d="M16.2259 17.9097L5.5868 11.2616M8.52069 6.44905L19.1598 13.0971M7.97248 19.3982L16.7742 4.96051M20.3823 11.0919C18.1025 9.6673 17.2071 8.55395 18.674 6.14767L11.4546 1.63647L2.6529 16.0742L13.2921 22.7223L20.3823 11.0919Z" stroke="#FD9222" stroke-width="2" stroke-linecap="round" stroke-linejoin="round"/>
    </g>
</symbol>

<symbol id="instagram" viewBox="0 0 24 24">
    <path d="M17 2H7C4.23858 2 2 4.23858 2 7V17C2 19.7614 4.23858 22 7 22H17C19.7614 22 22 19.7614 22 17V7C22 4.23858 19.7614 2 17 2Z" stroke-width="2" stroke-linecap="round" stroke-linejoin="round"/>
    <path d="M16 11.3701C16.1234 12.2023 15.9812 13.0523 15.5937 13.7991C15.2062 14.5459 14.5931 15.1515 13.8416 15.5297C13.0901 15.908 12.2384 16.0397 11.4077 15.906C10.5771 15.7723 9.80971 15.3801 9.21479 14.7852C8.61987 14.1903 8.22768 13.4229 8.09402 12.5923C7.96035 11.7616 8.09202 10.91 8.47028 10.1584C8.84854 9.40691 9.45414 8.7938 10.2009 8.4063C10.9477 8.0188 11.7977 7.87665 12.63 8.00006C13.4789 8.12594 14.2648 8.52152 14.8716 9.12836C15.4785 9.73521 15.8741 10.5211 16 11.3701Z" stroke-width="2" stroke-linecap="round" stroke-linejoin="round"/>
    <path d="M16 11.3701C16.1234 12.2023 15.9812 13.0523 15.5937 13.7991C15.2062 14.5459 14.5931 15.1515 13.8416 15.5297C13.0901 15.908 12.2384 16.0397 11.4077 15.906C10.5771 15.7723 9.80971 15.3801 9.21479 14.7852C8.61987 14.1903 8.22768 13.4229 8.09402 12.5923C7.96035 11.7616 8.09202 10.91 8.47028 10.1584C8.84854 9.40691 9.45414 8.7938 10.2009 8.4063C10.9477 8.0188 11.7977 7.87665 12.63 8.00006C13.4789 8.12594 14.2648 8.52152 14.8716 9.12836C15.4785 9.73521 15.8741 10.5211 16 11.3701Z" stroke-width="2" stroke-linecap="round" stroke-linejoin="round"/>
    <path d="M17.5 6.5H17.51" stroke-width="2" stroke-linecap="round" stroke-linejoin="round"/>
    <path d="M17.5 6.5H17.51" stroke-width="2" stroke-linecap="round" stroke-linejoin="round"/>
</symbol>

<symbol id="twitter" viewBox="0 0 24 24">
    <path d="M23 3.00005C22.0424 3.67552 20.9821 4.19216 19.86 4.53005C19.2577 3.83756 18.4573 3.34674 17.567 3.12397C16.6767 2.90121 15.7395 2.95724 14.8821 3.2845C14.0247 3.61176 13.2884 4.19445 12.773 4.95376C12.2575 5.71308 11.9877 6.61238 12 7.53005V8.53005C10.2426 8.57561 8.50127 8.18586 6.93101 7.39549C5.36074 6.60513 3.51032 4.72313 2.5 3.2845C2.5 3.2845 -1 13 8 17C5.94053 18.398 3.48716 19.099 1 19C10 24 21 19 21 7.50005C20.9991 7.2215 20.9723 6.94364 20.92 6.67005C21.9406 5.66354 22.6608 4.39276 23 3.00005Z"  stroke-width="2" stroke-linecap="round" stroke-linejoin="round"/>
</symbol>

<symbol id="scroll-down" viewBox="0 0 22 22">
    <path d="M11.6508 12.2834C11.5655 12.3693 11.4642 12.4375 11.3525 12.484C11.2407 12.5306 11.1209 12.5545 10.9999 12.5545C10.8789 12.5545 10.7591 12.5306 10.6474 12.484C10.5357 12.4375 10.4343 12.3693 10.3491 12.2834L6.15075 8.07588C6.06553 7.98996 5.96415 7.92177 5.85244 7.87523C5.74074 7.82869 5.62092 7.80473 5.49991 7.80473C5.3789 7.80473 5.25909 7.82869 5.14738 7.87523C5.03568 7.92177 4.9343 7.98996 4.84908 8.07588C4.67835 8.24763 4.58252 8.47996 4.58252 8.72213C4.58252 8.9643 4.67835 9.19663 4.84908 9.36838L9.05659 13.5759C9.57221 14.0909 10.2712 14.3801 10.9999 14.3801C11.7287 14.3801 12.4276 14.0909 12.9433 13.5759L17.1508 9.36838C17.3201 9.19764 17.4156 8.96719 17.4166 8.72671C17.4173 8.60607 17.3942 8.48648 17.3486 8.3748C17.3029 8.26311 17.2357 8.16153 17.1508 8.07588C17.0655 7.98996 16.9642 7.92177 16.8525 7.87523C16.7408 7.82869 16.6209 7.80473 16.4999 7.80473C16.3789 7.80473 16.2591 7.82869 16.1474 7.87523C16.0357 7.92177 15.9343 7.98996 15.8491 8.07588L11.6508 12.2834Z"/>
</symbol>

<symbol id="chocolotate-little" viewBox="0 0 32 32">
    <g>
        <path d="M13.822 2.41301L21.349 9.94901L21.429 9.86901C21.5867 9.71469 21.7978 9.6272 22.0184 9.62477C22.239 9.62235 22.452 9.70519 22.613 9.85601L22.619 9.86201L23.486 10.729C23.791 11.034 23.801 11.499 23.569 11.823L23.565 11.83L23.422 12.022L29.582 18.182C30.132 18.732 30.132 19.612 29.582 20.162L20.152 29.592C19.602 30.142 18.722 30.142 18.172 29.592L13.725 25.145C13.6512 25.2381 13.5584 25.3145 13.4529 25.3692C13.3474 25.4239 13.2316 25.4556 13.1129 25.4623C12.9943 25.469 12.8756 25.4505 12.7646 25.4081C12.6536 25.3656 12.5529 25.3002 12.469 25.216L9.86901 22.616C9.71469 22.4584 9.6272 22.2472 9.62477 22.0266C9.62235 21.806 9.70519 21.593 9.85601 21.432L9.86201 21.425L9.93901 21.349L2.41201 13.822C1.86201 13.272 1.86201 12.392 2.41201 11.842L11.842 2.41201C12.392 1.86201 13.272 1.86201 13.822 2.41201V2.41301ZM20.404 10.893L18.648 9.13801C18.5928 9.0811 18.5268 9.03585 18.4538 9.00495C18.3808 8.97405 18.3023 8.95813 18.223 8.95813C18.1437 8.95813 18.0653 8.97405 17.9923 9.00495C17.9193 9.03585 17.8532 9.0811 17.798 9.13801L14.218 12.718C14.1613 12.7743 14.1163 12.8413 14.0856 12.9151C14.0548 12.9889 14.039 13.0681 14.039 13.148C14.039 13.2279 14.0548 13.3071 14.0856 13.3809C14.1163 13.4547 14.1613 13.5217 14.218 13.578L15.967 15.327L16.577 14.717L15.012 13.152L18.222 9.93201L19.791 11.506L20.404 10.893ZM15.328 15.965L13.574 14.211C13.5188 14.1541 13.4528 14.1088 13.3798 14.0779C13.3068 14.047 13.2283 14.0311 13.149 14.0311C13.0697 14.0311 12.9913 14.047 12.9183 14.0779C12.8453 14.1088 12.7792 14.1541 12.724 14.211L9.14401 17.791L9.13901 17.796L9.13401 17.801C8.89401 18.031 8.89401 18.411 9.13401 18.651L10.886 20.403L11.502 19.787L9.93201 18.223L13.152 15.013L14.716 16.576L15.328 15.965ZM8.82201 8.19301L12.402 11.773C12.642 12.013 13.022 12.013 13.252 11.763L16.832 8.18301C16.8889 8.12884 16.9342 8.06368 16.9651 7.99148C16.9961 7.91929 17.012 7.84156 17.012 7.76301H17.022C17.022 7.61301 16.962 7.45301 16.842 7.33301L13.262 3.75301C13.2058 3.69617 13.1388 3.65105 13.065 3.62025C12.9912 3.58946 12.912 3.5736 12.832 3.5736C12.752 3.5736 12.6729 3.58946 12.599 3.62025C12.5252 3.65105 12.4583 3.69617 12.402 3.75301L8.82201 7.34301C8.58201 7.57301 8.58201 7.95301 8.82201 8.19301ZM3.75201 13.263L7.33201 16.843C7.57201 17.083 7.95201 17.083 8.18201 16.843L11.762 13.263C11.8201 13.2077 11.8661 13.1409 11.8971 13.0669C11.9281 12.9929 11.9434 12.9132 11.942 12.833H11.952C11.952 12.673 11.892 12.523 11.772 12.403L8.19201 8.82301C8.13683 8.7661 8.07077 8.72085 7.99776 8.68995C7.92476 8.65905 7.84629 8.64313 7.76701 8.64313C7.68774 8.64313 7.60927 8.65905 7.53626 8.68995C7.46326 8.72085 7.3972 8.7661 7.34201 8.82301L3.75201 12.413C3.51201 12.643 3.51201 13.023 3.75201 13.263ZM10.685 22.017L13.047 24.38L22.683 11.34L22.028 10.685L10.685 22.017Z"/>
        <path d="M13.822 2.41301L21.349 9.94901L21.429 9.86901C21.5867 9.71469 21.7978 9.6272 22.0184 9.62477C22.239 9.62235 22.452 9.70519 22.613 9.85601L22.619 9.86201L23.486 10.729C23.791 11.034 23.801 11.499 23.569 11.823L23.565 11.83L23.422 12.022L29.582 18.182C30.132 18.732 30.132 19.612 29.582 20.162L20.152 29.592C19.602 30.142 18.722 30.142 18.172 29.592L13.725 25.145C13.6512 25.2381 13.5584 25.3145 13.4529 25.3692C13.3474 25.4239 13.2316 25.4556 13.1129 25.4623C12.9943 25.469 12.8756 25.4505 12.7646 25.4081C12.6536 25.3656 12.5529 25.3002 12.469 25.216L9.86901 22.616C9.71469 22.4584 9.6272 22.2472 9.62477 22.0266C9.62235 21.806 9.70519 21.593 9.85601 21.432L9.86201 21.425L9.93901 21.349L2.41201 13.822C1.86201 13.272 1.86201 12.392 2.41201 11.842L11.842 2.41201C12.392 1.86201 13.272 1.86201 13.822 2.41201V2.41301ZM20.404 10.893L18.648 9.13801C18.5928 9.0811 18.5268 9.03585 18.4538 9.00495C18.3808 8.97405 18.3023 8.95813 18.223 8.95813C18.1437 8.95813 18.0653 8.97405 17.9923 9.00495C17.9193 9.03585 17.8532 9.0811 17.798 9.13801L14.218 12.718C14.1613 12.7743 14.1163 12.8413 14.0856 12.9151C14.0548 12.9889 14.039 13.0681 14.039 13.148C14.039 13.2279 14.0548 13.3071 14.0856 13.3809C14.1163 13.4547 14.1613 13.5217 14.218 13.578L15.967 15.327L16.577 14.717L15.012 13.152L18.222 9.93201L19.791 11.506L20.404 10.893ZM15.328 15.965L13.574 14.211C13.5188 14.1541 13.4528 14.1088 13.3798 14.0779C13.3068 14.047 13.2283 14.0311 13.149 14.0311C13.0697 14.0311 12.9913 14.047 12.9183 14.0779C12.8453 14.1088 12.7792 14.1541 12.724 14.211L9.14401 17.791L9.13901 17.796L9.13401 17.801C8.89401 18.031 8.89401 18.411 9.13401 18.651L10.886 20.403L11.502 19.787L9.93201 18.223L13.152 15.013L14.716 16.576L15.328 15.965ZM8.82201 8.19301L12.402 11.773C12.642 12.013 13.022 12.013 13.252 11.763L16.832 8.18301C16.8889 8.12884 16.9342 8.06368 16.9651 7.99148C16.9961 7.91929 17.012 7.84156 17.012 7.76301H17.022C17.022 7.61301 16.962 7.45301 16.842 7.33301L13.262 3.75301C13.2058 3.69617 13.1388 3.65105 13.065 3.62025C12.9912 3.58946 12.912 3.5736 12.832 3.5736C12.752 3.5736 12.6729 3.58946 12.599 3.62025C12.5252 3.65105 12.4583 3.69617 12.402 3.75301L8.82201 7.34301C8.58201 7.57301 8.58201 7.95301 8.82201 8.19301ZM3.75201 13.263L7.33201 16.843C7.57201 17.083 7.95201 17.083 8.18201 16.843L11.762 13.263C11.8201 13.2077 11.8661 13.1409 11.8971 13.0669C11.9281 12.9929 11.9434 12.9132 11.942 12.833H11.952C11.952 12.673 11.892 12.523 11.772 12.403L8.19201 8.82301C8.13683 8.7661 8.07077 8.72085 7.99776 8.68995C7.92476 8.65905 7.84629 8.64313 7.76701 8.64313C7.68774 8.64313 7.60927 8.65905 7.53626 8.68995C7.46326 8.72085 7.3972 8.7661 7.34201 8.82301L3.75201 12.413C3.51201 12.643 3.51201 13.023 3.75201 13.263ZM10.685 22.017L13.047 24.38L22.683 11.34L22.028 10.685L10.685 22.017Z"/>
    </g>
</symbol>

<symbol id="coin" viewBox="0 0 28 28">
    <g>
        <path id="Vector" d="M13.9998 0.666748C6.6665 0.666748 0.666504 6.66675 0.666504 14.0001C0.666504 21.3334 6.6665 27.3334 13.9998 27.3334C21.3332 27.3334 27.3332 21.3334 27.3332 14.0001C27.3332 6.66675 21.3332 0.666748 13.9998 0.666748ZM13.9998 24.6667C8.13317 24.6667 3.33317 19.8667 3.33317 14.0001C3.33317 8.13341 8.13317 3.33341 13.9998 3.33341C19.8665 3.33341 24.6665 8.13341 24.6665 14.0001C24.6665 19.8667 19.8665 24.6667 13.9998 24.6667Z"/>
        <path id="Vector_2" d="M15.7332 12.6667H12.2666C11.5999 12.6667 11.0666 12.1333 11.0666 11.4667C11.0666 10.8 11.5999 10.2667 12.2666 10.2667H17.1999C17.9999 10.2667 18.5332 9.73332 18.5332 8.93332C18.5332 8.13332 17.9999 7.59998 17.1999 7.59998H15.3332V6.39998C15.3332 5.59998 14.7999 5.06665 13.9999 5.06665C13.1999 5.06665 12.6666 5.59998 12.6666 6.39998V7.59998H12.2666C10.1332 7.59998 8.3999 9.33332 8.3999 11.4667C8.3999 13.6 10.1332 15.3333 12.2666 15.3333H15.5999C16.2666 15.3333 16.7999 15.8666 16.7999 16.5333C16.7999 17.2 16.2666 17.7333 15.5999 17.7333H10.6666C9.86657 17.7333 9.33324 18.2667 9.33324 19.0667C9.33324 19.8667 9.86657 20.4 10.6666 20.4H12.6666V21.6C12.6666 22.4 13.1999 22.9333 13.9999 22.9333C14.7999 22.9333 15.3332 22.4 15.3332 21.6V20.4H15.7332C17.8666 20.4 19.5999 18.6667 19.5999 16.5333C19.5999 14.4 17.8666 12.6667 15.7332 12.6667Z"/>
    </g>
</symbol>

<symbol id="spoon" viewBox="0 0 32 32">
    <g>
        <path id="Vector" d="M15.4514 14.106C14.6688 13.156 14.2748 11.99 14.2748 10.8241C14.2748 6.50028 19.4559 2.18188 24.6369 2.18188C27.4973 2.18188 29.818 4.50302 29.818 7.36396C29.818 12.546 25.5005 17.7281 21.1721 17.7281C20.0064 17.7281 18.8406 17.334 17.8908 16.5513L5.13242 29.3122C4.4578 29.9869 3.36222 29.9869 2.6876 29.3122C2.01299 28.6374 2.01299 27.5416 2.6876 26.8669L15.4514 14.106Z"/>
    </g>
</symbol>

<symbol viewBox="0 0 44 44" id="play" fill="none">
    <g>
        <path id="Vector 1" d="M15 33V12L35 22.5L15 33Z" fill="#F5F4F4"/>
        <circle id="Ellipse 76" cx="22" cy="22" r="21.5" stroke="white"/>
    </g>
</symbol>

<symbol viewBox="0 0 28 13" id="list-checked">
    <path d="M21.5 0H6.5C2.91015 0 0 2.91015 0 6.5C0 10.0899 2.91015 13 6.5 13H21.5C25.0899 13 28 10.0899 28 6.5C28 2.91015 25.0899 0 21.5 0Z"/>
</symbol>

<symbol viewBox="0 0 13 13" id="list-non-checked">
    <path d="M6.5 13C10.0899 13 13 10.0899 13 6.5C13 2.91015 10.0899 0 6.5 0C2.91015 0 0 2.91015 0 6.5C0 10.0899 2.91015 13 6.5 13Z" fill-opacity="0.1"/>
</symbol>

<symbol id="ukrainian-flag" viewBox="0 0 32 25" fill="none">
    <path d="M31.8318 1.05835H0.242676V24.5665H31.8318V1.05835Z" fill="#FFD700"/>
    <path fill-rule="evenodd" clip-rule="evenodd" d="M0.242676 1.05835H31.8318V12.8124H0.242676V1.05835Z" fill="#0057B7"/>
</symbol>

<symbol id="mastercard" viewBox="0 0 32 20" fill="none">
    <path fill-rule="evenodd" clip-rule="evenodd" d="M16 16.8343C14.4022 18.2053 12.3295 19.033 10.0647 19.033C5.01106 19.033 0.914307 14.9122 0.914307 9.82898C0.914307 4.74576 5.01106 0.625 10.0647 0.625C12.3295 0.625 14.4022 1.45267 16 2.82371C17.5979 1.45267 19.6705 0.625 21.9354 0.625C26.989 0.625 31.0857 4.74576 31.0857 9.82898C31.0857 14.9122 26.989 19.033 21.9354 19.033C19.6705 19.033 17.5979 18.2053 16 16.8343Z" fill="#ED0006"/>
    <path fill-rule="evenodd" clip-rule="evenodd" d="M16 16.8343C17.9674 15.1461 19.215 12.6341 19.215 9.82898C19.215 7.02389 17.9674 4.51189 16 2.82371C17.5978 1.45267 19.6705 0.625 21.9354 0.625C26.989 0.625 31.0857 4.74576 31.0857 9.82898C31.0857 14.9122 26.989 19.033 21.9354 19.033C19.6705 19.033 17.5978 18.2053 16 16.8343Z" fill="#F9A000"/>
    <path fill-rule="evenodd" clip-rule="evenodd" d="M16.0001 16.8343C17.9675 15.1462 19.2151 12.6342 19.2151 9.82909C19.2151 7.02402 17.9675 4.51203 16.0001 2.82385C14.0327 4.51203 12.7852 7.02402 12.7852 9.82909C12.7852 12.6342 14.0327 15.1462 16.0001 16.8343Z" fill="#FF5E00"/>
</symbol>

<symbol id="cross" viewBox="0 0 28 28">
    <path d="M21 7L7 21" stroke-width="2" stroke-linecap="round" stroke-linejoin="round"/>
    <path d="M7 7L21 21"  stroke-width="2" stroke-linecap="round" stroke-linejoin="round"/>
</symbol>

<symbol id="mobile-menu-icon" viewBox="0 0 28 28" fill="none">
    <path id="Icon" d="M3.5 14H24.5M3.5 7H24.5M3.5 21H24.5" stroke="#111111" stroke-width="2" stroke-linecap="round" stroke-linejoin="round"/>
</symbol>

<symbol id="left-arrow" viewBox="0 0 24 24">
    <path d="M768 903.232l-50.432 56.768L256 512l461.568-448 50.432 56.768L364.928 512z"/>
</symbol>
    
<symbol id="right-arrow" viewBox="0 0 24 24">
    <path d="M256 120.768L306.432 64 768 512l-461.568 448L256 903.232 659.072 512z"/>
</symbol>

</svg>