<svg width="28" height="28" viewBox="0 0 28 28" fill="none" xmlns="http://www.w3.org/2000/svg">
<g id="Group">
<path id="Vector" d="M14.0001 0.666748C6.66675 0.666748 0.666748 6.66675 0.666748 14.0001C0.666748 21.3334 6.66675 27.3334 14.0001 27.3334C21.3334 27.3334 27.3334 21.3334 27.3334 14.0001C27.3334 6.66675 21.3334 0.666748 14.0001 0.666748ZM14.0001 24.6667C8.13341 24.6667 3.33341 19.8667 3.33341 14.0001C3.33341 8.13341 8.13341 3.33341 14.0001 3.33341C19.8667 3.33341 24.6667 8.13341 24.6667 14.0001C24.6667 19.8667 19.8667 24.6667 14.0001 24.6667Z" fill="#FD9222"/>
<path id="Vector_2" d="M15.7335 12.6667H12.2668C11.6001 12.6667 11.0668 12.1333 11.0668 11.4667C11.0668 10.8 11.6001 10.2667 12.2668 10.2667H17.2001C18.0001 10.2667 18.5335 9.73332 18.5335 8.93332C18.5335 8.13332 18.0001 7.59998 17.2001 7.59998H15.3335V6.39998C15.3335 5.59998 14.8001 5.06665 14.0001 5.06665C13.2001 5.06665 12.6668 5.59998 12.6668 6.39998V7.59998H12.2668C10.1335 7.59998 8.40015 9.33332 8.40015 11.4667C8.40015 13.6 10.1335 15.3333 12.2668 15.3333H15.6001C16.2668 15.3333 16.8001 15.8666 16.8001 16.5333C16.8001 17.2 16.2668 17.7333 15.6001 17.7333H10.6668C9.86681 17.7333 9.33348 18.2667 9.33348 19.0667C9.33348 19.8667 9.86681 20.4 10.6668 20.4H12.6668V21.6C12.6668 22.4 13.2001 22.9333 14.0001 22.9333C14.8001 22.9333 15.3335 22.4 15.3335 21.6V20.4H15.7335C17.8668 20.4 19.6001 18.6667 19.6001 16.5333C19.6001 14.4 17.8668 12.6667 15.7335 12.6667Z" fill="#FD9222"/>
</g>
</svg>
